<?xml version="1.0" encoding="UTF-8" standalone="no"?>
<!-- Created with Inkscape (http://www.inkscape.org/) -->

<svg
   width="600"
   height="360"
   viewBox="0 0 158.75001 95.250007"
   version="1.1"
   id="svg5"
   inkscape:version="1.1.1 (3bf5ae0d25, 2021-09-20)"
   sodipodi:docname="logoKikoNav.svg"
   xmlns:inkscape="http://www.inkscape.org/namespaces/inkscape"
   xmlns:sodipodi="http://sodipodi.sourceforge.net/DTD/sodipodi-0.dtd"
   xmlns="http://www.w3.org/2000/svg"
   xmlns:svg="http://www.w3.org/2000/svg">
  <sodipodi:namedview
     id="namedview7"
     pagecolor="#ffffff"
     bordercolor="#666666"
     borderopacity="1.0"
     inkscape:pageshadow="2"
     inkscape:pageopacity="0.0"
     inkscape:pagecheckerboard="0"
     inkscape:document-units="px"
     showgrid="false"
     units="px"
     inkscape:zoom="1"
     inkscape:cx="454"
     inkscape:cy="72.5"
     inkscape:window-width="1920"
     inkscape:window-height="991"
     inkscape:window-x="-9"
     inkscape:window-y="-9"
     inkscape:window-maximized="1"
     inkscape:current-layer="layer1" />
  <defs
     id="defs2" />
  <g
     inkscape:label="Capa 1"
     inkscape:groupmode="layer"
     id="layer1">
    <path
       style="fill:#ffffff;fill-opacity:0.9375;stroke:none;stroke-width:0.432173px;stroke-linecap:butt;stroke-linejoin:miter;stroke-opacity:1"
       d="m 77.889278,56.093153 c 0,0 5.572048,-5.964263 9.732364,-7.510881 4.160315,-1.546617 9.56215,-1.656098 13.229208,-1.180179 3.66706,0.475919 7.79483,0.820753 12.25055,6.49399 4.45573,5.673238 3.86754,9.264874 8.54705,13.952613 4.67952,4.68774 14.30184,9.896094 20.7428,11.425309 6.44095,1.529215 13.5748,-0.92467 13.5748,-0.92467 0,0 -10.41477,8.138388 -17.02287,10.478451 -6.6081,2.340062 -14.02067,3.470434 -21.8142,2.895979 C 109.33545,91.14931 100.22341,88.201469 93.324852,84.883022 86.426288,81.564583 77.976794,72.296587 77.976794,72.296587 c 0,0 -8.471832,9.191322 -14.6194,12.54237 C 57.209829,88.190006 46.695388,91.067383 39.55496,91.520038 32.414533,91.972693 26.706009,90.585428 20.458595,88.216509 14.21118,85.84759 2.9329692,77.318994 2.9329692,77.318994 c 0,0 9.2113438,2.278706 14.9900468,1.09235 5.778704,-1.186359 13.667775,-5.097915 17.70851,-9.441331 4.040735,-4.343417 3.913912,-9.659619 7.190977,-13.187338 3.277064,-3.52772 6.846371,-6.490293 11.069705,-7.64462 4.223337,-1.154328 8.438758,-1.216163 12.421965,0.13797 3.983204,1.354139 11.575105,7.817128 11.575105,7.817128 z"
       id="path75"
       sodipodi:nodetypes="czzzzzczzzczzzczzzzzc" />
    <path
       id="text6400"
       style="font-style:normal;font-weight:normal;font-size:55.3875px;line-height:1.25;font-family:sans-serif;fill:#ffffff;fill-opacity:0.9375;stroke:none;stroke-width:2.26177;stroke-opacity:1"
       d="M 2.397693,1.7898822 V 75.367591 H 9.8018503 V 47.568192 L 14.95302,39.033486 27.471059,71.499536 34.014088,67.168101 19.781592,31.662163 36.843765,1.7898822 H 28.15181 L 9.8018503,33.601943 V 1.7898822 Z" />
    <path
       id="text6400-2"
       style="font-style:normal;font-weight:normal;font-size:55.3875px;line-height:1.25;font-family:sans-serif;fill:#ffffff;fill-opacity:0.9375;stroke:none;stroke-width:2.26177;stroke-opacity:1"
       d="M 55.243156,1.6534972 V 44.382875 h 9.244357 l 3.310971,-5.486594 2.958021,7.67203 h 7.901063 L 72.627926,31.525778 89.690094,1.6534972 H 80.997278 L 62.648179,33.465558 V 1.6534972 Z" />
    <path
       id="text6400-2-6"
       style="font-style:normal;font-weight:normal;font-size:54.8743px;line-height:1.25;font-family:sans-serif;fill:#ffffff;fill-opacity:0.9375;stroke:none;stroke-width:2.24081;stroke-opacity:1"
       d="m 102.27404,1.2369476 c -4.423849,0 -8.005172,1.6806947 -10.743748,5.042934 -4.634505,5.6899474 -6.95148,16.5531654 -6.95148,32.5884684 0,2.400074 0.05642,4.670583 0.156973,6.840575 l 7.150936,-2.852566 c -0.02418,-1.284705 -0.03989,-2.602837 -0.03989,-3.988009 0,-14.4835 1.369356,-23.406887 4.10793,-26.769127 1.895936,-2.3277045 4.002032,-3.4909467 6.319289,-3.4909467 2.1066,0 4.1077,1.1632422 6.00363,3.4909467 2.73857,3.36224 4.10793,12.285627 4.10792,26.769127 0,2.117175 -0.0363,4.083129 -0.0928,5.965582 l 6.75636,6.9975 c 0.39917,-3.868673 0.60444,-8.180971 0.60444,-12.963082 0,-16.035303 -2.31698,-26.898521 -6.95148,-32.5884684 -2.73858,-3.3622393 -6.2149,-5.042934 -10.42809,-5.042934 z" />
    <path
       id="text6400-2-6-8"
       style="font-style:normal;font-weight:normal;font-size:55.3875px;line-height:1.25;font-family:sans-serif;fill:#ffffff;fill-opacity:0.9375;stroke:none;stroke-width:2.26177;stroke-opacity:1"
       d="m 139.26881,1.86136 c -3.86313,0 -7.40393,1.810673 -10.6232,5.4315479 -3.4339,3.8795071 -5.04407,8.6640941 -4.82944,14.3540391 0.21461,5.689944 2.039,10.216221 5.4729,13.578461 4.7216,4.655409 9.76545,9.051702 15.13091,13.189844 3.00465,2.327707 4.50684,5.431599 4.50684,9.311106 0,3.620875 -0.96574,6.594791 -2.89732,8.922496 -1.71695,2.069069 -4.29286,3.103978 -7.72676,3.103978 -2.57541,0 -4.72114,-1.034909 -6.43809,-3.103978 -1.71695,-2.069071 -2.57558,-5.172142 -2.57558,-9.310286 V 53.8468 h -7.40416 v 3.879558 c 0,2.872189 0.45483,5.538857 1.33202,8.014637 l 18.76882,11.555698 c 3.93186,-0.573805 7.10531,-2.310404 9.51665,-5.216292 3.21929,-3.879507 4.82858,-9.052393 4.82858,-15.518236 0,-6.465847 -2.46794,-11.379599 -7.40416,-14.741837 -4.50698,-3.103603 -9.0144,-6.98327 -13.52138,-11.638675 -3.00466,-3.103608 -4.50685,-6.336672 -4.50685,-9.6989 0,-3.103607 0.96575,-5.819206 2.89732,-8.146911 1.50233,-1.810438 3.32672,-2.7153642 5.4729,-2.7153642 2.14619,0 3.97058,0.9049262 5.4729,2.7153642 2.14618,2.586336 3.00482,6.077708 2.57558,10.474482 h 7.40417 C 154.93607,15.82721 153.43388,10.396007 150.21461,6.5165002 147.63919,3.4128966 143.99042,1.86136 139.26881,1.86136 Z" />
    <text
       xml:space="preserve"
       style="font-style:normal;font-weight:normal;font-size:66.8492px;line-height:1.25;font-family:sans-serif;fill:#ffffff;fill-opacity:0.9375;stroke:none;stroke-width:1.67123;stroke-opacity:1"
       x="89.482468"
       y="54.961216"
       id="text6400-2-6-8-8"
       transform="scale(1.2328263,0.81114427)"><tspan
         sodipodi:role="line"
         id="tspan6398-6-1-9-9"
         style="font-style:normal;font-variant:normal;font-weight:normal;font-stretch:normal;font-family:'MS Gothic';-inkscape-font-specification:'MS Gothic';stroke-width:1.67123;fill:#ffffff;fill-opacity:0.9375;stroke:none;stroke-opacity:1"
         x="89.482468"
         y="54.961216">'</tspan></text>
    <path
       id="text6400-5"
       style="font-style:normal;font-weight:normal;font-size:55.3875px;line-height:1.25;font-family:sans-serif;fill:#ffffff;fill-opacity:0.9375;stroke:none;stroke-width:2.26177;stroke-opacity:1"
       d="m 38.002342,2.0692226 v 8.5355214 h 3.541646 v 40.325402 l 7.404157,-5.00925 V 10.604744 h 3.541651 V 2.0692226 Z" />
    <path
       style="fill:#ffffff;fill-opacity:0.9375;stroke:none;stroke-width:0.432173px;stroke-linecap:butt;stroke-linejoin:miter;stroke-opacity:1"
       d="m 2.3976928,75.367591 c 0,0 1.4147486,0.376298 2.9839076,0.556918 1.8200822,0.209503 3.0168981,0.592815 4.0108326,0.03426 0.4838573,-0.271909 0.4094163,-0.591176 0.4094163,-0.591176 v 0 z"
       id="path25750"
       sodipodi:nodetypes="cssccc" />
    <path
       style="fill:#ffffff;fill-opacity:0.9375;stroke:none;stroke-width:0.432173px;stroke-linecap:butt;stroke-linejoin:miter;stroke-opacity:1"
       d="m 34.014088,67.168101 c 0,0 -3.81122,3.687741 -6.076146,4.445291 -0.308631,0.103231 -0.466883,-0.113787 -0.466883,-0.113787 z"
       id="path26324"
       sodipodi:nodetypes="cscc" />
    <path
       style="fill:#ffffff;fill-opacity:0.9375;stroke:none;stroke-width:0.433939px;stroke-linecap:butt;stroke-linejoin:miter;stroke-opacity:1"
       d="m 41.543988,50.924573 v 2.097857 c 0,0 0.74112,-0.796525 1.865278,-1.779986 1.124156,-0.983461 2.644327,-2.162761 3.27312,-2.577097 1.234025,-0.813152 2.265759,-1.458781 2.265759,-1.458781 v -1.28567 z"
       id="path27520"
       sodipodi:nodetypes="cczsccc" />
    <path
       style="fill:#ffffff;fill-opacity:0.9375;stroke:none;stroke-width:0.425089px;stroke-linecap:butt;stroke-linejoin:miter;stroke-opacity:1"
       d="m 55.243156,44.382875 c -1.3e-5,-0.686364 0,1.074761 0,1.358914 0,0 0.932923,-0.185548 2.011811,-0.29287 0.831143,-0.08267 1.754555,-0.09221 2.370006,-0.09956 1.426592,-0.01703 4.141029,0.290703 4.141029,0.290703 l 0.721511,-1.257197 z"
       id="path28388"
       sodipodi:nodetypes="ccssccc" />
    <path
       style="fill:#ffffff;fill-opacity:0.9375;stroke:none;stroke-width:0.432173px;stroke-linecap:butt;stroke-linejoin:miter;stroke-opacity:1"
       d="m 70.756498,46.568311 0.561571,1.399802 c 0,0 2.208577,1.359316 3.257361,2.084982 1.049188,0.725944 3.036554,2.269848 3.036554,2.269848 l 2.574896,-2.082686 -1.529318,-3.671946 z"
       id="path30125"
       sodipodi:nodetypes="ccscccc" />
    <path
       style="fill:#ffffff;fill-opacity:0.9375;stroke:none;stroke-width:0.432173px;stroke-linecap:butt;stroke-linejoin:miter;stroke-opacity:1"
       d="m 112.29279,44.833932 c 0,0 -0.0787,1.180481 -0.13122,1.735269 -0.0498,0.524468 -0.18592,1.476626 -0.18592,1.476626 0,0 1.11614,0.900554 1.74187,1.460542 0.76105,0.681111 1.10227,1.090103 1.70335,1.699905 1.09526,1.111171 2.86868,4.276318 2.86868,4.276318 0,0 0.24341,-0.800169 0.33693,-1.138682 0.0805,-0.291615 0.1611,-0.724559 0.20822,-0.958882 0.10174,-0.506322 0.2145,-1.553596 0.2145,-1.553596 z"
       id="path30916"
       sodipodi:nodetypes="cscsscsscc" />
    <path
       style="fill:#ffffff;fill-opacity:0.9375;stroke:none;stroke-width:0.432173px;stroke-linecap:butt;stroke-linejoin:miter;stroke-opacity:1"
       d="m 84.735769,45.708925 0.07769,1.696827 c 0,0 0.993188,-0.540899 1.790856,-0.868916 0.797685,-0.328015 2.026785,-0.716622 3.079882,-0.935159 0.764508,-0.158655 2.330712,-0.268768 2.330712,-0.268768 L 91.8867,42.856359 Z"
       id="path31682"
       sodipodi:nodetypes="cczsccc" />
    <path
       style="fill:#ffffff;fill-opacity:0.9375;stroke:none;stroke-width:0.432173px;stroke-linecap:butt;stroke-linejoin:miter;stroke-opacity:1"
       d="m 123.21692,65.740995 c 0,0 1.28119,1.659151 3.23341,3.185652 1.24948,0.976994 2.78257,1.984312 3.99999,2.782524 1.25921,0.8256 3.28319,2.136741 5.36643,3.11869 3.07785,1.450771 6.16899,2.46883 6.16899,2.46883 z"
       id="path32684"
       sodipodi:nodetypes="cssscc" />
  </g>
</svg>
