<?xml version="1.0" encoding="UTF-8" standalone="no"?>
<!-- Created with Inkscape (http://www.inkscape.org/) -->

<svg
   width="600"
   height="360"
   viewBox="0 0 158.75001 95.250007"
   version="1.1"
   id="svg5"
   inkscape:version="1.1.1 (3bf5ae0d25, 2021-09-20)"
   sodipodi:docname="logoKikoNav.svg"
   xmlns:inkscape="http://www.inkscape.org/namespaces/inkscape"
   xmlns:sodipodi="http://sodipodi.sourceforge.net/DTD/sodipodi-0.dtd"
   xmlns="http://www.w3.org/2000/svg"
   xmlns:svg="http://www.w3.org/2000/svg">
  <sodipodi:namedview
     id="namedview7"
     pagecolor="#ffffff"
     bordercolor="#666666"
     borderopacity="1.0"
     inkscape:pageshadow="2"
     inkscape:pageopacity="0.0"
     inkscape:pagecheckerboard="0"
     inkscape:document-units="px"
     showgrid="false"
     units="px"
     inkscape:zoom="1.4142136"
     inkscape:cx="297.69195"
     inkscape:cy="172.88761"
     inkscape:window-width="1920"
     inkscape:window-height="991"
     inkscape:window-x="-9"
     inkscape:window-y="-9"
     inkscape:window-maximized="1"
     inkscape:current-layer="layer1" />
  <defs
     id="defs2" />
  <g
     inkscape:label="Capa 1"
     inkscape:groupmode="layer"
     id="layer1">
    <path
       style="fill:#ffffff;fill-opacity:1;stroke:none;stroke-width:0.432173px;stroke-linecap:butt;stroke-linejoin:miter;stroke-opacity:1"
       d="m 77.889278,56.093153 c 0,0 5.572048,-5.964263 9.732364,-7.510881 4.160315,-1.546617 9.56215,-1.656098 13.229208,-1.180179 3.66706,0.475919 7.79483,0.820753 12.25055,6.49399 4.45573,5.673238 3.86754,9.264874 8.54705,13.952613 4.67952,4.68774 14.30184,9.896094 20.7428,11.425309 6.44095,1.529215 13.5748,-0.92467 13.5748,-0.92467 0,0 -10.41477,8.138388 -17.02287,10.478451 -6.6081,2.340062 -14.02067,3.470434 -21.8142,2.895979 C 109.33545,91.14931 100.22341,88.201469 93.324852,84.883022 86.426288,81.564583 77.976794,72.296587 77.976794,72.296587 c 0,0 -8.471832,9.191322 -14.6194,12.54237 C 57.209829,88.190006 46.695388,91.067383 39.55496,91.520038 32.414533,91.972693 26.706009,90.585428 20.458595,88.216509 14.21118,85.84759 2.9329692,77.318994 2.9329692,77.318994 c 0,0 9.2113438,2.278706 14.9900468,1.09235 5.778704,-1.186359 13.667775,-5.097915 17.70851,-9.441331 4.040735,-4.343417 3.913912,-9.659619 7.190977,-13.187338 3.277064,-3.52772 6.846371,-6.490293 11.069705,-7.64462 4.223337,-1.154328 8.438758,-1.216163 12.421965,0.13797 3.983204,1.354139 11.575105,7.817128 11.575105,7.817128 z"
       id="path75"
       sodipodi:nodetypes="czzzzzczzzczzzczzzzzc" />
    <path
       id="text6400"
       style="font-style:normal;font-weight:normal;font-size:55.3875px;line-height:1.25;font-family:sans-serif;fill:#ffffff;fill-opacity:1;stroke:none;stroke-width:8.54842;stroke-opacity:1"
       d="M 9.0625 6.765625 L 9.0625 277.7168 L 37.046875 277.7168 L 37.046875 179.78516 L 56.515625 147.52734 L 103.82812 270.23438 L 128.55664 253.86328 L 74.765625 119.66797 L 139.25195 6.765625 L 106.40039 6.765625 L 37.046875 127 L 37.046875 6.765625 L 9.0625 6.765625 z "
       transform="scale(0.26458335)" />
    <path
       id="text6400-2"
       style="font-style:normal;font-weight:normal;font-size:55.3875px;line-height:1.25;font-family:sans-serif;fill:#ffffff;fill-opacity:1;stroke:none;stroke-width:2.26177;stroke-opacity:1"
       d="M 55.243156,1.6534972 V 44.382875 h 9.244357 l 3.310971,-5.486594 2.958021,7.67203 h 7.901063 L 72.627926,31.525778 89.690094,1.6534972 H 80.997278 L 62.648179,33.465558 V 1.6534972 Z" />
    <path
       id="text6400-2-6"
       style="font-style:normal;font-weight:normal;font-size:54.8743px;line-height:1.25;font-family:sans-serif;fill:#ffffff;fill-opacity:1;stroke:none;stroke-width:2.24081;stroke-opacity:1"
       d="m 102.27403,1.2369476 c -4.423849,0 -8.005172,1.6806947 -10.743748,5.042934 -4.634505,5.6899474 -6.95148,16.5531654 -6.95148,32.5884684 0,2.400074 0.05642,4.670583 0.156973,6.840575 l 7.150936,-2.852566 c -0.02418,-1.284705 -0.03989,-2.602837 -0.03989,-3.988009 0,-14.4835 1.369356,-23.406887 4.10793,-26.769127 1.895936,-2.3277045 4.002032,-3.4909467 6.319289,-3.4909467 2.1066,0 4.1077,1.1632422 6.00363,3.4909467 2.73857,3.36224 4.10793,12.285627 4.10792,26.769127 0,2.117175 -0.0363,4.083129 -0.0928,5.965582 l 6.75636,6.9975 c 0.39917,-3.868673 0.60444,-8.180971 0.60444,-12.963082 0,-16.035303 -2.31698,-26.898521 -6.95148,-32.5884684 -2.73858,-3.3622393 -6.2149,-5.042934 -10.42809,-5.042934 z" />
    <path
       id="text6400-2-6-8"
       style="font-style:normal;font-weight:normal;font-size:55.3875px;line-height:1.25;font-family:sans-serif;fill:#ffffff;fill-opacity:1;stroke:none;stroke-width:2.26177;stroke-opacity:1"
       d="m 139.26881,1.86136 c -3.86313,0 -7.40393,1.810673 -10.6232,5.4315479 -3.4339,3.8795071 -5.04407,8.6640941 -4.82944,14.3540391 0.21461,5.689944 2.039,10.216221 5.4729,13.578461 4.7216,4.655409 9.76545,9.051702 15.13091,13.189844 3.00465,2.327707 4.50684,5.431599 4.50684,9.311106 0,3.620875 -0.96574,6.594791 -2.89732,8.922496 -1.71695,2.069069 -4.29286,3.103978 -7.72676,3.103978 -2.57541,0 -4.72114,-1.034909 -6.43809,-3.103978 -1.71695,-2.069071 -2.57558,-5.172142 -2.57558,-9.310286 V 53.8468 h -7.40416 v 3.879558 c 0,2.872189 1.07945,4.885211 2.34931,7.184429 1.35094,2.446023 2.96664,3.773153 5.01385,5.366686 1.62499,1.26488 3.98402,2.800766 5.55315,3.56078 2.72614,1.320413 5.60116,2.685791 8.88002,2.207283 3.93186,-0.573805 5.40982,-1.059247 7.82116,-3.965135 3.21929,-3.879507 4.82858,-9.052393 4.82858,-15.518236 0,-6.465847 -2.46794,-11.379599 -7.40416,-14.741837 -4.50698,-3.103603 -9.0144,-6.98327 -13.52138,-11.638675 -3.00466,-3.103608 -4.50685,-6.336672 -4.50685,-9.6989 0,-3.103607 0.96575,-5.819206 2.89732,-8.146911 1.50233,-1.810438 3.32672,-2.7153642 5.4729,-2.7153642 2.14619,0 3.97058,0.9049262 5.4729,2.7153642 2.14618,2.586336 3.00482,6.077708 2.57558,10.474482 h 7.40417 C 154.93607,15.82721 153.43388,10.396007 150.21461,6.5165002 147.63919,3.4128966 143.99042,1.86136 139.26881,1.86136 Z"
       sodipodi:nodetypes="scsccsssssccssssssscsssssccss" />
    <text
       xml:space="preserve"
       style="font-style:normal;font-weight:normal;font-size:66.8492px;line-height:1.25;font-family:sans-serif;fill:#ffffff;fill-opacity:1;stroke:none;stroke-width:1.67123;stroke-opacity:1"
       x="89.482468"
       y="54.961216"
       id="text6400-2-6-8-8"
       transform="scale(1.2328263,0.81114427)"><tspan
         sodipodi:role="line"
         id="tspan6398-6-1-9-9"
         style="font-style:normal;font-variant:normal;font-weight:normal;font-stretch:normal;font-family:'MS Gothic';-inkscape-font-specification:'MS Gothic';stroke-width:1.67123;fill:#ffffff;fill-opacity:1;stroke:none;stroke-opacity:1"
         x="89.482468"
         y="54.961216">'</tspan></text>
    <path
       id="text6400-5"
       style="font-style:normal;font-weight:normal;font-size:55.3875px;line-height:1.25;font-family:sans-serif;fill:#ffffff;fill-opacity:1;stroke:none;stroke-width:2.26177;stroke-opacity:1"
       d="m 38.002342,2.0692226 v 8.5355214 h 3.541646 v 40.325402 l 7.404157,-5.00925 V 10.604744 h 3.541651 V 2.0692226 Z" />
    <path
       style="fill:#ffffff;fill-opacity:1;stroke:none;stroke-width:0.433362px;stroke-linecap:butt;stroke-linejoin:miter;stroke-opacity:1"
       d="m 41.543988,50.400979 v 2.092284 c 0,0 0.74112,-0.794409 1.865278,-1.775257 1.124156,-0.980849 2.644327,-2.157016 3.27312,-2.570251 1.234025,-0.810992 2.265759,-1.332129 2.265759,-1.332129 v -1.405032 z"
       id="path27520"
       sodipodi:nodetypes="cczsccc" />
    <path
       style="fill:#ffffff;fill-opacity:1;stroke:none;stroke-width:0.471609px;stroke-linecap:butt;stroke-linejoin:miter;stroke-opacity:1"
       d="m 55.243156,44.096232 c -1.3e-5,-0.831143 0,1.301466 0,1.645557 0,0 0.948264,-0.224687 2.044892,-0.354647 0.84481,-0.100108 1.783406,-0.11166 2.408977,-0.12056 1.450051,-0.02062 4.14481,0.246785 4.14481,0.246785 l 0.797688,-1.399608 z"
       id="path28388"
       sodipodi:nodetypes="ccssccc" />
    <path
       style="fill:#ffffff;fill-opacity:1;stroke:none;stroke-width:0.440096px;stroke-linecap:butt;stroke-linejoin:miter;stroke-opacity:1"
       d="m 70.670748,46.357836 0.561802,1.451 c 0,0 2.209491,1.409033 3.258709,2.16124 1.049622,0.752495 3.037809,2.352867 3.037809,2.352867 l 2.575961,-2.15886 -1.529951,-3.806247 z"
       id="path30125"
       sodipodi:nodetypes="ccscccc" />
    <path
       style="fill:#ffffff;fill-opacity:1;stroke:none;stroke-width:0.439092px;stroke-linecap:butt;stroke-linejoin:miter;stroke-opacity:1"
       d="m 112.29279,44.490216 c 0,0 -0.0787,1.218584 -0.13122,1.791279 -0.0498,0.541397 -0.18592,1.524289 -0.18592,1.524289 0,0 1.11614,0.929622 1.74187,1.507685 0.76105,0.703096 1.10227,1.125289 1.70335,1.754774 1.09526,1.147038 2.86868,4.414349 2.86868,4.414349 0,0 0.24341,-0.825997 0.33693,-1.175436 0.0805,-0.301028 0.1611,-0.747947 0.20822,-0.989833 0.10174,-0.522665 0.2145,-1.603743 0.2145,-1.603743 z"
       id="path30916"
       sodipodi:nodetypes="cscsscsscc" />
    <path
       style="fill:#ffffff;fill-opacity:1;stroke:none;stroke-width:0.455342px;stroke-linecap:butt;stroke-linejoin:miter;stroke-opacity:1"
       d="m 84.735769,45.522113 0.07769,1.883639 c 0,0 0.993188,-0.600449 1.790856,-0.964579 C 87.402,46.077045 88.6311,45.645654 89.684197,45.403058 90.448705,45.226936 92.014909,45.1047 92.014909,45.1047 L 91.8867,42.355494 Z"
       id="path31682"
       sodipodi:nodetypes="cczsccc" />
    <path
       style="fill:#ffffff;fill-opacity:1;stroke:none;stroke-width:0.264583px;stroke-linecap:butt;stroke-linejoin:miter;stroke-opacity:1"
       d="m 27.47106,71.499536 0.293655,0.830937 c 0,0 2.468222,-1.391409 3.591684,-2.340734 0.46115,-0.389672 1.2072,-0.889428 1.738242,-1.47606 0.575981,-0.636274 0.919446,-1.345579 0.919446,-1.345579 l -6.464346,2.996097 z"
       id="path66982"
       sodipodi:nodetypes="ccssccc" />
    <path
       style="fill:#ffffff;fill-opacity:1;stroke:none;stroke-width:0.265872px;stroke-linecap:butt;stroke-linejoin:miter;stroke-opacity:1"
       d="m 2.3977866,73.479241 v 0.888508 c 0,0 1.0447618,0.321247 1.624669,0.420521 0.6404716,0.109642 1.3539821,0.218699 2.0006516,0.282291 0.7172243,0.07053 1.4859253,0.09163 2.2053393,0.134392 0.5279091,0.03138 1.5717849,0.0047 1.5717849,0.0047 v -1.964434 l -5.478578,-1.777341 z"
       id="path67622"
       sodipodi:nodetypes="ccssscccc" />
  </g>
</svg>
