<?xml version="1.0" encoding="UTF-8" standalone="no"?>
<!-- Created with Inkscape (http://www.inkscape.org/) -->

<svg
   width="500"
   height="285"
   viewBox="0 0 132.29166 75.406257"
   version="1.1"
   id="svg5"
   sodipodi:docname="nuevoLogoKikoNav.svg"
   inkscape:version="1.1.1 (3bf5ae0d25, 2021-09-20)"
   xmlns:inkscape="http://www.inkscape.org/namespaces/inkscape"
   xmlns:sodipodi="http://sodipodi.sourceforge.net/DTD/sodipodi-0.dtd"
   xmlns="http://www.w3.org/2000/svg"
   xmlns:svg="http://www.w3.org/2000/svg">
  <sodipodi:namedview
     id="namedview7"
     pagecolor="#ffffff"
     bordercolor="#666666"
     borderopacity="1.0"
     inkscape:pageshadow="2"
     inkscape:pageopacity="0.0"
     inkscape:pagecheckerboard="0"
     inkscape:document-units="px"
     showgrid="false"
     units="px"
     inkscape:zoom="1.1709688"
     inkscape:cx="308.29172"
     inkscape:cy="174.64171"
     inkscape:window-width="1920"
     inkscape:window-height="991"
     inkscape:window-x="-9"
     inkscape:window-y="-9"
     inkscape:window-maximized="1"
     inkscape:current-layer="layer1" />
  <defs
     id="defs2" />
  <g
     inkscape:label="Capa 1"
     inkscape:groupmode="layer"
     id="layer1">
    <path
       id="path77026"
       style="opacity:1;fill:#000080;fill-opacity:1;stroke:none;stroke-width:0.281416px;stroke-linecap:butt;stroke-linejoin:miter;stroke-opacity:1"
       d="m -244.61981,-81.788503 c -2.1081,0.57401 -4.44,1.57059 -6.95599,3.18115 -13.98179,8.95019 -13.44268,25.04486 -13.0902,30.23762 0.40661,5.99012 1.91299,15.05306 6.44401,18.48807 2.69235,2.0411 6.66281,1.04091 9.04611,-0.74133 2.44859,-1.83107 3.24903,-4.47397 3.5732,-6.32319 0.31205,-1.7801 0.19442,-3.79901 -0.47414,-5.05383 -0.81608,-1.5317 -2.10404,-2.67222 -3.65529,-2.42837 -1.6936,0.26623 -5.32871,5.20557 -3.3499,5.40842 2.65284,0.27196 4.527,1.96491 3.02787,4.46537 -1.25918,2.10025 -3.86442,0.42114 -5.28487,-1.45399 -1.43876,-1.8993 -2.7806,-7.01994 -3.30786,-10.3826 -0.90377,-5.76386 0.20385,-13.85695 4.2476,-22.92409 5.22053,-11.7058 17.47494,-9.81814 17.47494,-9.81814 0,0 -3.18669,4.43072 -4.01088,7.08314 -2.98366,9.602 -2.77244,20.32634 -3.1914,30.42523 -0.32302,7.78616 -0.29984,17.80425 -2.25719,23.0976 0,0 -2.57046,5.55497 -4.6241,2.42206 -2.23539,-3.41019 2.93794,-4.37645 2.93794,-4.37645 0,0 0.68461,-2.93327 -0.58616,-4.54221 -1.94676,-2.46482 -6.30602,-3.14393 -7.71929,4.24989 -1.88352,9.85401 6.87348,9.87053 8.7896,8.82537 2.76955,-1.51066 5.13809,-3.75891 6.15116,-6.71842 3.07309,-8.97761 4.16777,-30.782 4.16777,-30.782 0,0 3.03464,2.18278 4.19066,4.6608 2.09491,4.49062 3.97183,19.1361 6.11734,23.5923 1.81877,3.77757 4.34795,2.70485 5.44973,2.17034 1.23686,-0.60005 3.07165,-4.01313 2.21077,-5.38753 0,0 -1.54204,-0.69314 -2.34873,-1.59487 -1.57767,-1.76355 -3.83152,-11.08498 -4.28501,-13.67813 -0.65712,-3.75756 -1.0534,-6.71624 -3.14085,-9.66776 -0.99495,-1.4068 -3.87689,-2.38349 -3.87689,-2.38349 0,0 2.97656,-2.64365 4.12909,-4.33807 3.06436,-4.50512 7.13556,-15.09661 7.13556,-15.09661 l 8.02937,-17.43413 c 0,0 -5.66958,0.11769 -7.9721,2.55674 -3.55864,3.76966 -6.61951,14.94339 -6.61951,14.94339 0,0 -2.73135,11.54712 -5.11478,15.31502 -1.19278,1.88565 -3.9951,2.10661 -3.9951,2.10661 0,0 0.37975,-13.80967 1.93866,-20.17354 0.61974,-2.52992 3.00132,-6.64161 3.00132,-6.64161 0,0 -4.67353,-3.3388 -12.20246,-1.28876 z m 58.36363,-4.70803 c -2.54934,0.70016 -5.00121,4.50403 -6.75767,7.53173 -3.18745,5.49441 -4.72866,12.79672 -6.51592,19.25028 -1.83646,6.63119 -2.57949,13.67794 -4.93961,20.02936 -1.31872,3.54883 -4.2324,10.10415 -6.59673,11.16532 -0.92416,0.41478 -1.1672,-1.84841 -1.15941,-2.92598 0.0359,-4.97162 2.71133,-13.36656 2.71133,-13.36656 l 3.61357,-10.20016 c 0,0 -3.94066,0.10971 -5.42276,1.75199 -2.46546,2.73191 -3.48445,7.56321 -4.49761,11.62487 -0.98451,3.94682 -2.24455,9.17477 -2.05617,13.31366 0.1304,2.86496 0.41703,5.85387 2.10093,7.00104 1.15943,0.78988 2.9636,-0.32368 4.21865,-1.33181 2.22757,-1.78939 3.24627,-4.37012 4.79395,-7.14852 0.54413,-0.97684 1.59112,-3.62866 1.59112,-3.62866 l -2.17658,9.76911 c 0,0 3.23299,0.0141 4.22627,-1.48335 2.02006,-3.0455 4.14936,-13.6202 6.94123,-19.28609 1.70725,-3.46473 2.97989,-6.66204 5.62632,-8.2914 0.4107,-0.25286 2.00507,-1.29383 2.93815,-0.29234 0.72797,0.78134 -0.22523,3.03793 -0.77882,4.04623 -1.26625,2.30637 -2.59145,3.13307 -4.11585,4.14332 -1.02944,0.68222 -3.25982,1.20422 -3.25982,1.20422 0,0 -0.66694,8.28031 -0.0473,10.76996 0.66719,2.68077 1.68837,4.95578 3.81763,5.56056 1.7932,0.50932 3.9331,-1.2916 5.50885,-2.96489 2.58787,-2.74808 6.25426,-11.08499 6.25426,-11.08499 0,0 0.0405,5.55503 1.53686,7.5734 1.14934,1.55036 2.96674,2.4639 4.76445,2.13892 2.79698,-0.50562 4.70928,-1.66502 6.73234,-3.63674 2.50449,-2.44092 4.25532,-5.52186 5.32706,-9.15197 0.20114,-0.68132 0.72256,-2.32524 0.72256,-2.32524 0,0 2.3429,0.49066 3.51549,0.13102 2.54928,-0.78189 3.4033,-2.28593 4.51487,-4.11543 0.82754,-1.36198 1.08731,-2.69813 1.30686,-4.332 0.10945,-0.81764 -0.28804,-2.57991 -0.28804,-2.57991 0,0 0.1179,2.33581 -3.12506,6.57564 -2.6245,3.43118 -4.83379,0.91992 -4.83379,0.91992 0,0 1.18268,-5.54412 0.84139,-8.31905 -0.29682,-2.41354 -1.18499,-5.66231 -2.81181,-6.70272 -2.43596,-1.55787 -5.92844,-0.3668 -8.64506,1.37282 -2.55566,1.63656 -4.48046,4.42654 -6.23161,7.90735 -1.3779,2.73886 -3.27377,10.09428 -3.27377,10.09428 0,0 -3.35565,7.88597 -5.0725,9.77838 -1.10294,1.21572 -2.97707,1.80928 -4.05729,0.60132 -1.29413,-1.44718 -1.72516,-8.52161 -1.72516,-8.52161 0,0 4.653,-2.16157 6.30629,-4.73309 1.63446,-2.54222 3.68102,-5.79688 2.33805,-9.19809 -0.9484,-2.40193 -3.91263,-1.60269 -5.8708,-0.82988 -2.18346,0.86173 -3.71439,3.54113 -5.37046,5.89582 -1.7378,2.47089 -4.76259,8.13473 -4.76259,8.13473 0,0 0.49771,-2.20963 1.73833,-4.90798 1.56186,-3.39704 3.62095,-6.03402 5.19355,-9.19473 2.89188,-5.8123 5.95142,-12.54421 7.76884,-18.89463 1.66973,-5.83438 0.91125,-8.69047 -1.46012,-8.93614 -0.36642,-0.0379 -0.73266,-0.001 -1.09686,0.0987 z m -0.0727,2.52448 c 0.15088,-0.0483 0.29849,-0.0519 0.4413,-0.005 1.73139,0.56907 -0.64428,8.05575 -1.5501,10.43156 -1.12947,2.96243 -8.48999,18.53999 -8.48999,18.53999 0,0 3.8542,-16.33218 5.19804,-20.55322 0.37192,-1.16823 2.61968,-7.8476 4.40075,-8.41342 z m -17.07012,13.86021 c -2.34353,0.62163 -3.69845,4.42273 -4.01684,5.50852 -0.43845,1.49521 0.35823,4.46645 1.47282,3.77765 0.26764,-0.1654 0.94833,-2.26841 2.19259,-3.58011 1.31944,-1.39096 2.37792,-0.4255 2.81489,-1.56251 0.61414,-1.59803 0.92101,-4.27352 -1.84669,-4.22936 -0.21279,0.003 -0.41816,0.0332 -0.61677,0.0858 z m 61.60015,-3.02454 c -0.80149,0.22085 -1.60183,0.55831 -2.3398,0.92805 -1.98493,0.99446 -4.06287,2.62472 -5.08924,5.03735 -1.16364,2.73525 -1.19434,6.18834 -0.36325,8.75146 1.08369,3.34216 5.48112,4.42078 6.8311,7.56633 0.50767,1.18294 0.41909,3.77749 -0.41503,5.52661 -0.91238,1.91312 -2.4132,3.37194 -4.08418,3.59731 -1.24901,0.16845 -2.71442,-0.31009 -3.18717,-1.72193 -0.40422,-1.20718 1.00152,-3.71611 0.74667,-4.74868 -0.17323,-0.70212 -0.92916,-0.74961 -1.47366,-0.69766 -1.2449,0.11881 -2.49807,2.04578 -2.87045,3.61 -0.46918,1.97081 0.0558,3.76034 1.04524,5.07905 1.06713,1.42222 2.80836,1.98813 4.47667,2.02989 2.45613,0.0615 6.28298,-1.88836 8.56806,-3.65689 2.61942,-2.0273 5.79291,-6.66587 7.36802,-9.41373 2.10576,-3.6736 2.9502,-7.99615 3.23511,-11.18918 0.21902,-2.45438 -0.49526,-2.87063 -0.52036,-2.16892 0,0 -0.14181,2.87702 -1.88987,7.38782 -0.59117,1.52549 -1.42693,3.14867 -2.42118,5.03059 -1.28246,2.42745 -4.73203,6.2884 -4.73203,6.2884 0,0 2.3955,-3.49071 1.91663,-8.17953 -0.32702,-3.20207 -2.88975,-5.15862 -4.6886,-6.13266 -1.77507,-0.96117 -3.88622,-2.40105 -4.10147,-4.99667 -0.13947,-1.68203 0.70869,-3.27031 1.96079,-4.34897 1.03796,-0.89419 2.68713,-1.50189 3.60404,-0.73055 1.74141,1.46489 0.53467,2.83598 -0.34996,3.72169 -1.55774,1.5597 -1.56053,2.87105 -0.57864,3.22386 3.06576,1.10156 4.69405,-2.24319 5.22151,-4.67978 0.55797,-2.57729 -0.82432,-4.01723 -2.13312,-4.84963 -1.06065,-0.67457 -2.40002,-0.63157 -3.73582,-0.26365 z m -23.8665,10.89984 c 3.51535,-0.97575 2.98602,3.82737 2.98602,3.82737 0,0 -2.73865,-0.19908 -2.88906,3.25077 -0.20325,4.6621 2.19778,6.11476 2.19778,6.11476 0,0 -2.27727,7.50426 -4.27899,10.37671 -1.32563,1.90227 -3.68611,4.17737 -5.29301,2.7917 -2.31811,-1.99897 -1.60197,-7.68553 -0.72194,-11.5308 1.14945,-5.0225 2.8313,-8.34123 3.7695,-10.30679 1.20086,-2.51583 3.86604,-4.42278 4.2297,-4.52372 z" />
    <path
       id="path77026-3"
       style="opacity:1;fill:#ffffff;fill-opacity:1;stroke:none;stroke-width:0.623617;stroke-linecap:butt;stroke-linejoin:miter;stroke-miterlimit:4;stroke-dasharray:none;stroke-opacity:0"
       d="M 26.241328,0.73041905 C 24.148045,0.74017232 21.766692,1.0364081 19.099874,1.7784593 4.2799334,5.9021557 1.8580631,18.717007 1.2451117,22.889108 0.53804423,27.70185 0.30900287,35.170797 3.9581078,38.834235 c 2.1683045,2.176829 6.0961202,2.222262 8.6690192,1.316836 2.643373,-0.930239 3.879717,-2.84766 4.522235,-4.238866 0.618496,-1.3392 0.875123,-2.957204 0.472883,-4.088036 -0.490995,-1.380356 -1.498394,-2.551212 -3.006231,-2.684911 -1.646208,-0.145961 -5.9748835,2.987786 -4.14502,3.563906 2.453153,0.772357 3.912977,2.502418 2.043441,4.160539 C 10.944119,38.256435 8.7920792,36.383591 7.7934586,34.605155 6.7819591,32.803778 6.4484259,28.480589 6.5632692,25.716005 6.7601285,20.977306 9.2786113,14.82331 14.744362,8.5179198 21.80073,0.37756797 33.017766,4.4436647 33.017766,4.4436647 c 0,0 -3.813036,2.8266369 -5.073518,4.7465792 -4.563063,6.9503651 -6.316452,15.4581521 -8.550466,23.3398541 -1.722407,6.076729 -3.783924,15.437879 -6.33494,17.75349 -1.003073,0.910506 -3.1772807,2.883261 -4.8033521,0.93925 -0.9903001,-1.183932 -0.1150153,-2.638721 0.9303783,-3.012333 1.1056898,-0.395164 2.6381098,0.176235 2.6381098,0.176235 0,0 1.179929,-2.170933 0.274049,-3.707838 -1.387783,-2.354467 -5.9230685,-3.067013 -8.4921058,1.449183 -2.0251745,3.560121 -0.072724,6.87015 1.9135922,8.268841 1.9936607,1.403865 4.8063876,1.127829 5.8098966,0.929178 3.281626,-0.649615 4.929284,-1.989678 6.423856,-4.112258 4.533749,-6.438806 9.536528,-23.416138 9.536528,-23.416138 0,0 2.465433,2.360611 3.104823,4.559242 1.15869,3.984322 0.26276,15.936777 1.47545,19.904573 1.028013,3.363546 3.61139,3.060227 4.746072,2.858542 1.703762,-0.302836 3.628475,-2.52126 3.066573,-3.786903 0,0 -1.463606,-0.28583 -2.060447,-1.167056 -1.167259,-1.723442 -1.461262,-10.138913 -1.416924,-12.280706 0.06424,-3.103525 0.229097,-5.521758 -1.202788,-8.289895 -0.682483,-1.319393 -3.223454,-2.696072 -3.223454,-2.696072 0,0 3.289412,-1.460504 4.685216,-2.555383 3.711168,-2.911076 9.480374,-10.413674 9.480374,-10.413674 L 56.693893,1.8599107 c 0,0 -5.370079,-1.09909604 -7.986353,0.3416426 -4.043555,2.2267463 -8.965633,10.4012507 -8.965633,10.4012507 0,0 -4.679205,8.538449 -7.613757,11.010882 -1.468596,1.237332 -4.152516,0.822544 -4.152516,0.822544 0,0 2.872664,-10.818404 5.502046,-15.5128608 1.045301,-1.8662568 4.040704,-4.6103897 4.040704,-4.6103897 0,0 -3.801057,-3.6174657 -11.277065,-3.58252582 z M 82.158411,9.2854628 c -2.532522,0.016518 -5.538187,2.5030002 -7.746493,4.5231052 -4.007428,3.665914 -6.790973,9.104685 -9.652102,13.821916 -2.939886,4.847066 -4.923903,10.251964 -8.306877,14.768151 -1.89022,2.523396 -5.832543,7.084109 -8.256249,7.424477 -0.947368,0.133044 -0.764575,-1.704116 -0.561032,-2.552868 0.93909,-3.915929 4.991593,-9.97852 4.991593,-9.97852 l 5.266226,-7.289976 c 0,0 -3.737568,-0.741913 -5.43479,0.242523 -2.823316,1.637617 -4.664291,5.236122 -6.359627,8.228472 -1.647403,2.907746 -3.78801,6.7686 -4.363887,10.07451 -0.398627,2.28837 -0.672432,4.707406 0.707276,5.96675 0.949984,0.867116 2.854781,0.367636 4.222341,-0.16409 2.427276,-0.943812 3.858203,-2.766286 5.824159,-4.633541 0.691191,-0.656499 2.161739,-2.529128 2.161739,-2.529128 l -3.832098,7.251927 c 0,0 3.04742,0.690851 4.257118,-0.28208 2.460226,-1.978733 6.394401,-9.876349 10.059862,-13.76076 2.241455,-2.37534 4.024206,-4.631013 6.817496,-5.36047 0.433497,-0.113194 2.127147,-0.599508 2.825061,0.387014 0.544503,0.769666 -0.765615,2.350105 -1.471457,3.029445 -1.614509,1.553909 -3.015211,1.927708 -4.637266,2.40448 -1.095379,0.321958 -3.294545,0.264986 -3.294545,0.264986 0,0 -2.136849,6.394391 -2.005605,8.48943 0.141326,2.255867 0.690465,4.265944 2.589078,5.190882 1.598962,0.778949 3.94563,-0.192406 5.736843,-1.181623 2.94174,-1.624637 7.918553,-7.433083 7.918553,-7.433083 0,0 -0.973188,4.392415 0.07086,6.299849 0.802001,1.465144 2.350192,2.568183 4.105309,2.689671 2.730706,0.189028 4.745866,-0.323901 7.013409,-1.454601 2.807157,-1.399763 5.019842,-3.463062 6.691873,-6.102533 0.313809,-0.495394 1.105027,-1.683103 1.105027,-1.683103 0,0 2.120944,0.879788 3.292634,0.842496 2.54734,-0.08108 3.62687,-1.088478 5.00864,-2.298574 1.02866,-0.900866 1.51702,-1.900695 2.02162,-3.143954 0.25215,-0.622249 0.19802,-2.09655 0.19802,-2.09655 0,0 -0.31399,1.868164 -4.14544,4.532305 -3.10067,2.156018 -4.72766,-0.290291 -4.72766,-0.290291 0,0 2.12519,-4.126628 2.30847,-6.388293 0.15944,-1.967105 -0.0869,-4.717686 -1.43224,-5.880779 -2.014418,-1.741572 -5.526064,-1.535876 -8.405654,-0.73416 -2.708967,0.754222 -5.032795,2.55133 -7.3186,4.930126 -1.798577,1.87175 -4.926383,7.27787 -4.926383,7.27787 0,0 -4.601547,5.517913 -6.565772,6.650399 -1.261857,0.72753 -3.137979,0.801934 -3.937111,-0.37847 -0.957375,-1.414157 -0.07597,-7.087736 -0.07597,-7.087736 0,0 4.783184,-0.727604 6.81109,-2.409384 2.004817,-1.66263 4.528129,-3.800851 3.88046,-6.767344 -0.45738,-2.09494 -3.399342,-2.08741 -5.387367,-1.889216 -2.216766,0.220999 -4.148896,2.013652 -6.139948,3.523733 -2.089322,1.584609 -5.974145,5.418426 -5.974145,5.418426 0,0 0.871858,-1.639145 2.533563,-3.507783 2.091964,-2.352491 4.51463,-4.000618 6.573703,-6.164346 3.786464,-3.978923 7.898532,-8.648334 10.769335,-13.277823 2.637521,-4.253302 2.442001,-6.66672 0.249591,-7.3591566 C 82.872271,9.3312057 82.520102,9.2830591 82.1583,9.2854628 Z m -0.528198,1.9769802 c 0.151135,-0.0063 0.291045,0.02177 0.417185,0.08902 1.529764,0.813104 -2.074577,6.221935 -3.361705,7.906428 -1.60492,2.100411 -11.385089,12.846334 -11.385089,12.846334 0,0 6.609736,-12.078626 8.646055,-15.127231 0.563574,-0.843741 3.900244,-5.642359 5.683529,-5.714434 z m -18.627471,7.349269 c -2.32405,-0.0022 -4.294364,2.712731 -4.792433,3.502676 -0.685872,1.087795 -0.475279,3.600125 0.701632,3.290868 0.282602,-0.07426 1.307666,-1.590785 2.72033,-2.364354 1.498006,-0.820309 2.320788,0.164135 2.940037,-0.641284 0.870339,-1.132006 1.646989,-3.178919 -0.972082,-3.725956 -0.201358,-0.04198 -0.400533,-0.06174 -0.597484,-0.06195 z m 58.663898,10.56407 c -0.79634,0.0058 -1.61283,0.103826 -2.37635,0.240469 -2.05364,0.367484 -4.31077,1.217171 -5.71834,2.905378 -1.59579,1.913939 -2.25347,4.632581 -1.93609,6.830067 0.41378,2.865374 4.36591,4.641127 5.06674,7.407334 0.26356,1.040288 -0.29242,3.069213 -1.3978,4.274206 -1.20906,1.317963 -2.89052,2.153695 -4.50797,1.980236 -1.20899,-0.129666 -2.50432,-0.815397 -2.69325,-2.02898 -0.16154,-1.037657 1.62146,-2.722095 1.56905,-3.590556 -0.0357,-0.590516 -0.74009,-0.786926 -1.26323,-0.860397 -1.19606,-0.167976 -2.72916,1.089271 -3.36526,2.245424 -0.80146,1.456679 -0.63203,2.979302 0.0613,4.228011 0.74777,1.346742 2.28739,2.159421 3.85366,2.543127 2.30592,0.564879 6.27116,-0.169295 8.74889,-1.084558 2.84028,-1.049178 6.67868,-4.042626 8.66497,-5.880008 2.65544,-2.456393 4.2391,-5.690097 5.08926,-8.150059 0.65352,-1.890891 0.0554,-2.369559 -0.0959,-1.821061 0,0 -0.65761,2.240658 -3.12802,5.432955 -0.83547,1.079586 -1.91947,2.184853 -3.20009,3.460976 -1.65183,1.646059 -5.60914,3.967777 -5.60914,3.967777 0,0 2.89549,-2.251148 3.29745,-6.052126 0.27451,-2.595743 -1.78692,-4.678595 -3.30658,-5.82548 -1.49959,-1.131727 -3.22908,-2.711901 -2.95954,-4.805556 0.17466,-1.356745 1.26403,-2.431845 2.64165,-3.019849 1.14202,-0.487448 2.80848,-0.620304 3.53305,0.181185 1.37609,1.522165 -0.012,2.35049 -1.00779,2.863486 -1.75355,0.90337 -1.99494,1.937671 -1.13287,2.422532 2.69166,1.51388 4.83678,-0.783378 5.77802,-2.595382 0.99564,-1.916627 -0.0462,-3.343605 -1.12939,-4.275681 -0.87777,-0.755349 -2.14913,-1.003003 -3.47633,-0.993495 z m -24.500129,3.58413 c 3.494019,-0.03093 2.120121,3.64825 2.120121,3.64825 0,0 -2.547374,-0.732891 -3.317412,1.958023 -1.04061,3.636477 0.960022,5.287688 0.960022,5.287688 0,0 -3.514716,5.443393 -5.926127,7.289409 -1.596952,1.222519 -4.238053,2.521697 -5.501691,1.090324 -1.822932,-2.064904 -0.111945,-6.402034 1.418404,-9.251605 1.998862,-3.721965 4.18978,-5.987427 5.432745,-7.341343 1.590961,-1.732962 4.452483,-2.677544 4.813938,-2.680746 z"
       sodipodi:nodetypes="ssssssssssssscssssscssssscssscssscsccccscscsscssssccsssscscccssssscssscsssscssccscsssscsscsssscssscssccscscccssssccssscscsscssssssscsscssssssscsssscscsssssc" />
    <path
       id="text117225"
       style="font-style:normal;font-weight:normal;font-size:10.116px;line-height:1.25;font-family:sans-serif;fill:#ffffff;fill-opacity:1;stroke:none;stroke-width:0.417121"
       d="m 1.3005945,57.265582 v 1.444292 H 130.63636 V 57.265582 Z M 112.46208,59.905195 c -1.11894,3.46e-4 -2.14708,0.255992 -3.08495,0.767213 -0.93786,0.511221 -1.66182,1.207647 -2.17183,2.089831 -0.50999,0.876809 -0.76492,1.869683 -0.76479,2.977593 1.8e-4,1.489768 0.45291,2.769454 1.35804,3.839438 1.10813,1.311948 2.61096,1.967627 4.50875,1.967039 1.70036,-5.26e-4 3.0985,-0.547076 4.19537,-1.639199 1.09687,-1.092117 1.6452,-2.504211 1.645,-4.236 -1.2e-4,-1.118667 -0.24654,-2.103202 -0.74029,-2.952807 -0.48825,-0.849606 -1.19064,-1.539646 -2.1067,-2.071806 -0.84475,-0.49454 -1.79098,-0.741625 -2.8386,-0.741302 z m -26.286438,0.0079 c -0.756925,2.37e-4 -1.453714,0.147879 -2.089938,0.443878 -0.636224,0.296 -1.107682,0.665209 -1.414787,1.106318 -0.307122,0.435733 -0.461132,0.911088 -0.461061,1.427397 7.2e-5,0.661523 0.236269,1.247835 0.708031,1.758618 0.471763,0.510783 1.283706,0.930694 2.435578,1.258407 l 2.05706,0.580197 c 0.932465,0.268623 1.57957,0.557909 1.94162,0.86973 0.356557,0.311828 0.53452,0.712658 0.534574,1.202082 5.4e-5,0.532442 -0.246682,0.995199 -0.740281,1.387966 -0.592338,0.468086 -1.283346,0.702747 -2.073184,0.702996 -0.581386,1.78e-4 -1.15417,-0.132079 -1.719143,-0.395437 -0.559498,-0.26874 -1.072972,-0.663634 -1.539241,-1.185181 -0.46081,-0.521546 -0.830617,-1.15646 -1.110428,-1.903946 l -0.765419,0.154344 0.765419,4.0411 h 0.576484 l 0.377886,-1.073647 c 0.597906,0.473099 1.154547,0.804453 1.67016,0.992529 0.515594,0.182701 1.09996,0.273965 1.752667,0.273764 1.267043,-3.93e-4 2.298086,-0.334399 3.09333,-1.001546 0.800738,-0.672522 1.201431,-1.455037 1.201342,-2.347823 -5.4e-5,-0.403369 -0.08008,-0.77793 -0.23923,-1.122089 -0.159097,-0.349534 -0.37798,-0.642188 -0.657755,-0.878746 -0.279756,-0.241934 -0.672188,-0.469997 -1.17683,-0.684971 -0.499163,-0.214974 -0.880679,-0.360775 -1.143953,-0.435992 l -2.147345,-0.619629 c -0.685637,-0.198783 -1.178859,-0.387032 -1.480559,-0.564421 -0.30168,-0.18277 -0.527031,-0.393169 -0.675152,-0.629768 -0.148137,-0.236593 -0.221794,-0.480639 -0.221831,-0.733412 -1.7e-5,-0.27967 0.09571,-0.554575 0.287604,-0.823545 0.191952,-0.268969 0.480168,-0.48658 0.864089,-0.653424 0.383938,-0.17222 0.816701,-0.257843 1.299362,-0.257993 0.800811,-2.48e-4 1.530353,0.233046 2.188608,0.700746 0.800865,0.559086 1.442708,1.324944 1.925514,2.298253 l 0.757033,-0.225317 -0.880859,-3.468787 h -0.59196 l -0.345639,0.773967 c -0.345585,-0.279559 -0.724174,-0.493946 -1.135567,-0.644408 -0.581423,-0.214951 -1.18994,-0.322407 -1.826199,-0.32221 z m 38.150288,0.18138 -4.53327,0.0011 v 0.686096 h 0.27148 c 0.39493,-1.21e-4 0.65829,0.02988 0.78994,0.089 0.1372,0.05374 0.23338,0.14219 0.28824,0.265878 0.0603,0.118299 0.0901,0.354789 0.0903,0.70975 l 0.001,7.695778 c 4e-5,0.36572 -0.0329,0.615839 -0.0988,0.750312 -0.0603,0.129096 -0.15892,0.226083 -0.29599,0.290664 -0.13718,0.05921 -0.39534,0.08888 -0.7738,0.089 h -0.27148 v 0.678215 l 4.44297,-0.0011 v -0.678214 h -0.39529 c -0.35104,1.09e-4 -0.58381,-0.02875 -0.699,-0.08787 -0.11527,-0.06451 -0.20565,-0.17527 -0.27149,-0.33122 -0.0494,-0.112929 -0.0742,-0.38427 -0.0742,-0.814529 l -6.6e-4,-2.88859 h 2.09832 c 1.19574,-3.69e-4 2.07058,-0.119192 2.62451,-0.356006 0.55946,-0.242194 1.03381,-0.648763 1.42319,-1.218976 0.32355,-0.473382 0.485,-1.034625 0.48493,-1.685389 -1e-4,-0.763707 -0.21374,-1.39351 -0.64163,-1.888171 -0.42226,-0.494667 -0.95989,-0.843566 -1.61261,-1.047736 -0.52109,-0.171944 -1.47025,-0.258415 -2.84699,-0.257994 z m -19.56458,0.0068 -4.39334,0.0011 v 0.684971 h 0.45268 c 0.2962,-9.3e-5 0.51513,0.04355 0.65775,0.129558 0.14814,0.086 0.24433,0.214327 0.28824,0.386422 0.0275,0.08604 0.0411,0.336185 0.0413,0.750312 v 3.05758 l -5.948058,0.0023 -6.29e-4,-3.138698 c -5.4e-5,-0.381852 0.02478,-0.631978 0.07416,-0.750312 0.06034,-0.161365 0.164655,-0.273394 0.312762,-0.33798 0.153521,-0.06458 0.405361,-0.0979 0.756405,-0.09801 h 0.304356 V 60.10348 l -4.4262,0.0011 v 0.6861 l 0.461061,-0.0011 c 0.285216,-8.7e-5 0.488068,0.03238 0.608732,0.09689 0.126236,0.0645 0.216606,0.164111 0.27148,0.298549 0.06034,0.13444 0.09013,0.377072 0.09032,0.726651 l 0.0013,7.75211 c 3.7e-5,0.32807 -0.03286,0.556998 -0.09876,0.686095 -0.06034,0.129096 -0.145628,0.217436 -0.255356,0.265878 -0.104142,0.04306 -0.369862,0.06521 -0.797685,0.06534 h -0.279847 v 0.677085 l 4.426235,-0.0011 V 70.67885 c -0.564955,1.79e-4 -0.907864,-0.01508 -1.02853,-0.04731 -0.164481,-0.04297 -0.27692,-0.123912 -0.337253,-0.242217 -0.05494,-0.118305 -0.08242,-0.389652 -0.08242,-0.814529 v -3.590461 l 5.948067,-0.0011 6.3e-4,3.49245 c 7e-5,0.484035 -0.0162,0.771527 -0.049,0.862969 -0.0384,0.118334 -0.12658,0.205296 -0.26374,0.259118 -0.13161,0.05383 -0.40017,0.08099 -0.80605,0.08111 h -0.32048 v 0.677084 l 4.3933,-0.0011 v -0.67821 c -0.55946,1.73e-4 -0.8885,-0.01508 -0.98725,-0.04731 -0.16448,-0.04835 -0.27465,-0.129293 -0.32951,-0.242223 -0.055,-0.118299 -0.0819,-0.389646 -0.0819,-0.814523 l -0.001,-7.664232 c -6e-5,-0.381859 0.0248,-0.629469 0.0742,-0.742427 0.0548,-0.118339 0.14527,-0.209189 0.27148,-0.273763 0.13162,-0.06996 0.35122,-0.105807 0.65838,-0.105903 h 0.39466 z m -34.588169,0.01014 -5.92418,0.0023 6.48e-4,0.68497 h 0.468794 c 0.290712,-9.2e-5 0.493549,0.03238 0.608738,0.09689 0.120659,0.05913 0.214032,0.158736 0.279855,0.298544 0.06588,0.139813 0.09858,0.371292 0.09871,0.693986 l 6.48e-4,7.373567 c -0.0051,0.484042 -0.01359,0.755365 -0.02446,0.814529 -0.03295,0.145225 -0.09059,0.26593 -0.172809,0.362766 -0.07675,0.09145 -0.167286,0.156093 -0.271483,0.193776 -0.09871,0.03768 -0.295778,0.05623 -0.591966,0.05633 l -0.395295,0.0011 v 0.67708 l 4.401717,-0.0011 v -0.678231 h -0.29599 c -0.38943,1.21e-4 -0.652801,-0.03741 -0.789926,-0.112659 -0.131654,-0.07526 -0.227896,-0.203582 -0.288256,-0.386426 -0.02746,-0.0968 -0.04117,-0.339423 -0.04129,-0.726652 V 65.99334 h 1.472825 l 4.212766,5.371609 2.616128,-0.0011 v -0.678211 l -0.205707,0.0011 c -0.263273,8.1e-5 -0.501846,-0.04358 -0.715765,-0.129558 -0.208441,-0.08599 -0.408359,-0.211871 -0.600356,-0.378537 -0.07687,-0.06989 -0.238712,-0.255437 -0.485574,-0.556541 l -3.028181,-3.629893 c 0.937932,-0.01105 1.689451,-0.144989 2.254377,-0.403322 0.570404,-0.26371 1.006115,-0.62178 1.307745,-1.073642 0.30162,-0.457242 0.452746,-0.978615 0.452672,-1.564839 -6.1e-5,-0.570092 -0.156762,-1.07047 -0.469442,-1.500631 -0.307267,-0.435531 -0.748618,-0.766815 -1.324563,-0.992523 -0.575959,-0.231085 -1.425944,-0.346212 -2.550369,-0.345864 z m -8.737632,0.0034 -9.330256,0.0023 v 0.686096 c 0.559469,-1.73e-4 0.886268,0.01871 0.97952,0.05634 0.175522,0.06449 0.298823,0.155463 0.370138,0.273763 0.07137,0.118294 0.107069,0.352279 0.107069,0.701865 l 6.49e-4,7.744218 c 3.8e-5,0.360344 -0.02708,0.59429 -0.08186,0.701872 -0.07675,0.155994 -0.186268,0.269143 -0.328872,0.339105 -0.09322,0.04844 -0.331828,0.07311 -0.715774,0.07323 h -0.329515 v 0.677084 l 9.68363,-0.0023 1.283239,-3.526245 -0.74866,-0.257992 c -0.296114,0.66699 -0.605658,1.183248 -0.929224,1.549071 -0.411316,0.46803 -0.888569,0.814921 -1.431559,1.04097 -0.537499,0.226055 -1.28612,0.339935 -2.245992,0.340236 h -1.719799 c -0.36749,1.1e-4 -0.592229,-0.01871 -0.6745,-0.05634 -0.08224,-0.03762 -0.142806,-0.09622 -0.181213,-0.176876 -0.03295,-0.08604 -0.04954,-0.320012 -0.04966,-0.701871 v -3.662554 h 1.381906 c 0.427827,-1.32e-4 0.72983,0.02627 0.905354,0.07999 0.181012,0.05372 0.348101,0.15589 0.501697,0.306434 0.15359,0.145161 0.257882,0.300828 0.312749,0.467533 0.06041,0.166706 0.09083,0.438059 0.09097,0.81453 v 0.428108 h 0.806059 l -6.48e-4,-4.937871 h -0.806049 v 0.18589 c 5.1e-5,0.467903 -0.03868,0.796382 -0.115415,0.984643 -0.09871,0.252809 -0.279706,0.465469 -0.542965,0.637654 -0.257781,0.166804 -0.641594,0.249947 -1.151691,0.250102 h -1.381906 l -6.37e-4,-4.12221 2.780561,-0.0011 c 0.795328,-2.42e-4 1.343969,0.03245 1.64565,0.09689 0.307158,0.06445 0.609151,0.192899 0.905353,0.386427 0.301705,0.193523 0.559223,0.43015 0.773168,0.70975 0.213957,0.274225 0.411553,0.65388 0.592616,1.137864 l 0.724165,-0.267002 z m -16.463524,0.0045 -5.454735,0.0023 v 0.684973 h 0.386905 c 0.345554,-1.1e-4 0.57898,0.02988 0.699655,0.089 0.120677,0.05913 0.211131,0.155095 0.27148,0.289534 0.06036,0.13444 0.09024,0.384593 0.09029,0.750311 l 0.0012,7.817452 c 4.3e-5,0.360338 -0.09919,0.619064 -0.296624,0.775092 -0.137108,0.112988 -0.391809,0.168875 -0.764787,0.16899 h -0.386911 v 0.678216 l 5.751369,-0.0023 c 0.691104,-2.13e-4 1.36308,-0.03829 2.015784,-0.113788 0.652699,-0.08087 1.22264,-0.260946 1.710772,-0.540766 0.493616,-0.27982 0.875237,-0.6368 1.143953,-1.072516 0.26875,-0.43573 0.403124,-0.909718 0.403063,-1.420646 -5.9e-5,-0.527066 -0.137753,-1.000097 -0.412053,-1.419512 -0.274296,-0.419416 -0.647071,-0.742006 -1.118807,-0.967743 -0.31266,-0.150498 -0.767905,-0.279047 -1.365777,-0.386428 0.471693,-0.118467 0.84457,-0.261292 1.118803,-0.428102 0.427799,-0.258287 0.75403,-0.567905 0.978873,-0.928317 0.224842,-0.365788 0.337306,-0.777601 0.337255,-1.234746 -7.3e-5,-0.634632 -0.213743,-1.177422 -0.64162,-1.629058 -0.422398,-0.45163 -0.998661,-0.763186 -1.728186,-0.935066 -0.493661,-0.118168 -1.407092,-0.177285 -2.739943,-0.176875 z m -11.534327,0.0034 -5.924184,0.0023 v 0.686098 l 0.469444,-0.0011 c 0.290703,-9.2e-5 0.493544,0.03238 0.608733,0.09689 0.120677,0.05913 0.214028,0.158735 0.279864,0.29855 0.06583,0.139809 0.09862,0.371284 0.09867,0.69398 l 6.44e-4,7.373567 c -0.0056,0.484041 -0.01342,0.755365 -0.02452,0.814529 -0.0329,0.145225 -0.09055,0.265929 -0.172809,0.362766 -0.07679,0.09145 -0.167268,0.156093 -0.27148,0.193775 -0.09872,0.03768 -0.296424,0.05737 -0.592609,0.05745 H 27.51481 v 0.67708 l 4.401707,-0.0011 v -0.67821 l -0.295983,0.0011 c -0.389434,1.2e-4 -0.652803,-0.03853 -0.789937,-0.113784 -0.131654,-0.07526 -0.227889,-0.203581 -0.288245,-0.386421 -0.02744,-0.0968 -0.04122,-0.339423 -0.04126,-0.726657 v -3.468833 h 1.472825 l 4.212769,5.371609 2.616134,-0.0011 v -0.677086 h -0.205705 c -0.263279,8.2e-5 -0.501854,-0.04357 -0.715778,-0.129558 -0.208441,-0.08598 -0.408356,-0.21187 -0.60035,-0.378536 -0.0768,-0.06989 -0.238709,-0.255438 -0.485568,-0.556541 l -3.028195,-3.629888 c 0.937927,-0.01105 1.689451,-0.144994 2.254377,-0.403322 0.570406,-0.263709 1.006119,-0.621786 1.307746,-1.073648 0.301619,-0.457242 0.452742,-0.978615 0.452676,-1.564839 -6.4e-5,-0.570091 -0.156761,-1.070469 -0.469447,-1.500625 -0.307218,-0.435537 -0.748571,-0.76682 -1.324517,-0.992529 -0.575952,-0.231084 -1.425945,-0.346211 -2.55036,-0.345865 z m -11.773567,0.0034 -1.358041,0.0011 -3.577596,9.319194 c -0.169987,0.441069 -0.307212,0.730995 -0.411412,0.870861 -0.104199,0.134491 -0.227537,0.233964 -0.37014,0.298549 -0.137113,0.0592 -0.364762,0.0889 -0.68289,0.089 v 0.67821 l 3.431215,-0.0011 v -0.678216 c -0.09325,-0.0053 -0.214307,-0.0079 -0.362401,-0.0079 -0.219402,6.9e-5 -0.378451,-0.01871 -0.477188,-0.05633 -0.09872,-0.04298 -0.178251,-0.105229 -0.238589,-0.185886 -0.05485,-0.08066 -0.08188,-0.174083 -0.08189,-0.281648 -1.2e-5,-0.09681 0.04607,-0.272189 0.139286,-0.524996 l 0.888591,-2.436827 4.163118,-0.0011 0.757047,2.178834 c 0.153626,0.440972 0.230194,0.717359 0.230208,0.830306 2e-5,0.155965 -0.07954,0.28531 -0.238592,0.387545 -0.08228,0.0538 -0.254532,0.08103 -0.517809,0.08112 -0.126165,3.5e-5 -0.25527,0.005 -0.386909,0.01576 v 0.67821 l 4.08896,-0.0023 v -0.67712 h -0.181203 c -0.301672,9.3e-5 -0.542492,-0.07478 -0.723516,-0.225321 -0.175539,-0.155914 -0.351263,-0.470857 -0.526836,-0.944089 z m -12.7530852,0.0045 -5.4547376,0.0011 v 0.686098 h 0.3869056 c 0.3455543,-1.03e-4 0.578981,0.02988 0.6996574,0.089 0.1206841,0.05913 0.2111288,0.155096 0.2714796,0.289534 0.060351,0.134438 0.090229,0.384593 0.090283,0.750312 l 0.00125,7.817452 c 4.13e-5,0.360337 -0.09919,0.619069 -0.2966271,0.775098 -0.1371129,0.112981 -0.3918076,0.168868 -0.7647864,0.168983 H 3.457561 v 0.678216 l 5.7513647,-0.0023 c 0.6911066,-2.66e-4 1.3630813,-0.03834 2.0157833,-0.113841 0.652703,-0.08088 1.222642,-0.260946 1.710772,-0.540767 0.493615,-0.279819 0.87524,-0.637924 1.143954,-1.07364 0.268754,-0.435747 0.403126,-0.908603 0.403066,-1.419536 -5.9e-5,-0.527067 -0.137759,-1.000097 -0.412055,-1.419512 -0.274296,-0.419336 -0.647072,-0.741927 -1.118804,-0.967664 -0.31266,-0.150497 -0.767905,-0.279047 -1.36578,-0.386422 0.471695,-0.118471 0.844575,-0.261298 1.118803,-0.428107 0.427799,-0.258288 0.754033,-0.567906 0.978876,-0.928318 0.224839,-0.365775 0.337302,-0.777589 0.33725,-1.234733 -7.2e-5,-0.634632 -0.21374,-1.177423 -0.641619,-1.629058 -0.422395,-0.451642 -0.998662,-0.763199 -1.728183,-0.935073 -0.49366,-0.118172 -1.407095,-0.17729 -2.7399432,-0.176881 z m 103.5510342,0.64557 c 0.80629,-2.53e-4 1.4811,0.171939 2.02416,0.515981 0.54305,0.344037 0.97921,0.875805 1.3084,1.596382 0.38403,0.838888 0.57636,1.763704 0.57648,2.774807 1.1e-4,0.994969 -0.192,1.901996 -0.57585,2.719606 -0.38385,0.812228 -0.86921,1.409251 -1.45605,1.791282 -0.58686,0.376662 -1.26176,0.565316 -2.02416,0.565552 -0.7679,2.36e-4 -1.45884,-0.193153 -2.07319,-0.580197 -0.61435,-0.387039 -1.10524,-0.943667 -1.47282,-1.669615 -0.36209,-0.731322 -0.54348,-1.621276 -0.54361,-2.670028 -1.2e-4,-1.097159 0.18395,-2.020359 0.55135,-2.768047 0.37289,-0.747688 0.86628,-1.312357 1.48056,-1.6944 0.61426,-0.387424 1.34906,-0.581063 2.20473,-0.581323 z m 10.33362,0.198276 h 1.43995 c 0.95437,-2.94e-4 1.59639,0.04499 1.92549,0.136319 0.47173,0.134312 0.84452,0.392207 1.1188,0.773974 0.27431,0.37639 0.41136,0.846911 0.41143,1.411627 5e-5,0.516309 -0.11761,0.967985 -0.3534,1.355288 -0.2358,0.381929 -0.53497,0.651695 -0.89696,0.807775 -0.35651,0.156076 -0.98181,0.234056 -1.87585,0.234332 h -1.76881 z m -55.559783,0.0169 h 2.978543 c 0.65819,-2.02e-4 1.151442,0.07734 1.480561,0.233207 0.334599,0.150485 0.59792,0.382106 0.789926,0.69398 0.192021,0.306503 0.288205,0.684964 0.288256,1.136739 6.1e-5,0.532442 -0.13432,0.970448 -0.403033,1.314732 -0.263246,0.344291 -0.625197,0.581663 -1.085915,0.710887 -0.323606,0.09691 -0.885462,0.145081 -1.686271,0.14533 l -2.361419,0.0011 z m -33.756949,0.01127 c 0.658194,-2.02e-4 1.151445,0.07734 1.480561,0.233207 0.334601,0.150485 0.597923,0.382107 0.789935,0.693986 0.192008,0.306498 0.288193,0.684965 0.288247,1.136734 5.9e-5,0.532441 -0.13432,0.971573 -0.403031,1.315863 -0.263235,0.344285 -0.625195,0.580532 -1.085917,0.709756 -0.323603,0.09691 -0.886107,0.145081 -1.68691,0.145329 l -2.360778,0.0011 -6.44e-4,-4.234869 z m 11.542711,0.0124 c 0.932446,-2.89e-4 1.546771,0.03381 1.842963,0.103641 0.455268,0.112803 0.817122,0.325804 1.08592,0.637655 0.274285,0.306474 0.412001,0.691107 0.412053,1.153633 6.3e-5,0.548582 -0.151047,0.997733 -0.452678,1.34741 -0.296149,0.349678 -0.726685,0.59704 -1.291623,0.742427 -0.361998,0.09154 -1.033972,0.137139 -2.015783,0.137444 l -2.097677,0.0011 -6.48e-4,-4.122217 z m -38.5784524,0.01127 h 2.5174733 c 0.9324452,-2.88e-4 1.5467671,0.03381 1.8429641,0.103649 0.455264,0.112802 0.817117,0.325797 1.085918,0.637647 0.274283,0.306475 0.412001,0.691108 0.412055,1.153635 6.3e-5,0.548581 -0.151047,0.997732 -0.452681,1.347409 -0.296148,0.349679 -0.726687,0.597041 -1.291622,0.742428 -0.361999,0.09154 -1.0339733,0.137143 -2.0157835,0.137443 l -2.0976775,0.0011 z m 14.1923784,0.553156 1.777835,4.839859 -3.545998,0.0011 z m 21.869249,4.332888 h 2.221485 c 1.223153,-3.75e-4 2.073149,0.07989 2.55036,0.241092 0.482698,0.155823 0.858384,0.413717 1.127188,0.773973 0.274288,0.354876 0.41136,0.76321 0.411412,1.225737 6.3e-5,0.548576 -0.167164,1.018907 -0.501686,1.411621 -0.334544,0.387339 -0.740291,0.643364 -1.217468,0.767213 -0.471696,0.118466 -1.261196,0.17766 -2.369158,0.178005 l -1.119452,0.0011 c -0.433311,1.33e-4 -0.696686,-0.0137 -0.789933,-0.04056 -0.131636,-0.03761 -0.219203,-0.104872 -0.263095,-0.201661 -0.03291,-0.06991 -0.04962,-0.290214 -0.04964,-0.661316 z m -33.8394937,0.01014 c 1.2231485,-3.81e-4 2.0731477,0.08102 2.5503597,0.242217 0.482695,0.155823 0.858382,0.413717 1.127188,0.773973 0.274287,0.354876 0.411358,0.763209 0.41141,1.225736 6.3e-5,0.548577 -0.167154,1.018913 -0.501689,1.411621 -0.33454,0.387339 -0.740288,0.643371 -1.217465,0.767213 -0.471695,0.118467 -1.2611943,0.177661 -2.3691591,0.178006 H 7.5465551 C 7.1132419,70.521383 6.8498695,70.508671 6.7566213,70.481821 6.6249846,70.444211 6.5374157,70.376956 6.4935254,70.28016 6.4606114,70.21025 6.4445594,69.989945 6.4445224,69.618845 L 6.443876,65.92361 Z M 1.3612092,72.96934 v 1.44428 H 130.69763 v -1.444292 z" />
  </g>
</svg>
